<svg viewBox="0 0 246 36" fill="none" xmlns="http://www.w3.org/2000/svg"><path d="M20.82 31.94h-.57v-.01l-.02-.07a5.09 5.09 0 0 0-.03-.14l-.01-.06a9.52 9.52 0 0 0-.05-.18v-.01a8.11 8.11 0 0 0-.06-.2l-.02-.05c0-.05-.02-.1-.04-.13l-.02-.07a6.5 6.5 0 0 0-.04-.13l-.02-.06-.06-.16-.01-.03a7.57 7.57 0 0 0-.07-.18l-.03-.06-.05-.12-.03-.07a7.38 7.38 0 0 0-.09-.18l-.06-.13-.02-.05a6.16 6.16 0 0 0-.09-.17l-.04-.07-.05-.1-.05-.07-.05-.1a2.27 2.27 0 0 0-.05-.07l-.06-.1-.06-.1-.08-.12a5.3 5.3 0 0 0-.05-.08l-.06-.08-.05-.08a.98.98 0 0 0-.06-.08l-.06-.08-.05-.08-.12-.15-.05-.06-.07-.09-.05-.06-.08-.09-.05-.06-.07-.08-.05-.05-.29-.31-.04-.04-.1-.1-.04-.04a7.28 7.28 0 0 0-.1-.08l-.03-.03-.34-.3-.03-.03a7.13 7.13 0 0 0-.11-.09l-.04-.03-.11-.09-.02-.01-.4-.29-.01-.01a9.71 9.71 0 0 0-.13-.09l-.03-.02-.13-.08-.45-.27-.15-.08-.02-.01a9.62 9.62 0 0 0-.79-.38h-.01a9.16 9.16 0 0 0-.22-.1h1.42c.23 0 .41-.24.41-.55 0-.31-.18-.56-.41-.56h-.42l.08-.22c.4-.23 1.1-.73 1.8-1.65v-.01l.16-.22v-.01l.16-.22.01-.03.07-.1v-.01l.08-.12.01-.03.06-.1.02-.02.07-.12.01-.03a6.4 6.4 0 0 0 .14-.27l.01-.03.06-.1.02-.04.06-.14.01-.02.05-.12.02-.04a7.04 7.04 0 0 0 .13-.3l.01-.04.05-.13.01-.03.06-.15.02-.05.04-.12.02-.05a12.61 12.61 0 0 0 .06-.2l.04-.13.02-.05a9.08 9.08 0 0 0 .1-.35l.01-.06.05-.18v-.05l.04-.14.02-.06a12.91 12.91 0 0 0 .07-.38l.02-.07c0-.06.02-.11.03-.17v-.03l.04-.2v-.07l.03-.16v-.06a.64.64 0 0 0 .03-.2l.01-.07a8.25 8.25 0 0 0 .05-.45v-.06l.02-.18v-.07l.02-.23v-.05l.01-.2v-.06l.01-.25v-1.47l-.01-.07-.01-.23v-.06l-.02-.28v-.07l-.03-.24v-.07l-.03-.3v-.05l-.03-.25a5.2 5.2 0 0 0-.04-.39l-.01-.04-.04-.27v-.09l-.05-.32c-1.58-10.66-12.77-8.93-12.77-8.93l.36 2.3-6.77 6.77.3 2.62 2.56 1.5c.11-.28.26-.54.44-.79 1.65-1.8 4.86-3.23 5.78-3.52l.29-.09a17.62 17.62 0 0 0-3.7 13.04c-.2.04-.36.27-.36.56 0 .3.18.56.41.56h1.42a9.4 9.4 0 0 0-5.5 5.77l-.02.07a6.1 6.1 0 0 0-.04.12l-.02.08a4.22 4.22 0 0 0-.05.2l-.03.1-.03.12-.03.13h-.56a.85.85 0 0 0-.59.22.77.77 0 0 0-.24.55.74.74 0 0 0 .24.55.82.82 0 0 0 .59.22h19.96a.85.85 0 0 0 .59-.22.77.77 0 0 0 .24-.55.74.74 0 0 0-.24-.55.82.82 0 0 0-.59-.22Zm23.38 0h-.56v-.01l-.02-.07a5.09 5.09 0 0 0-.03-.14l-.02-.06a9.52 9.52 0 0 0-.04-.18v-.01a8.11 8.11 0 0 0-.06-.2l-.02-.05-.04-.13-.02-.07a6.5 6.5 0 0 0-.04-.13l-.03-.06-.05-.16-.02-.03a7.57 7.57 0 0 0-.1-.24l-.04-.12-.04-.07a7.38 7.38 0 0 0-.08-.18l-.06-.13-.03-.05a6.16 6.16 0 0 0-.08-.17l-.04-.07-.06-.1-.04-.07-.06-.1a2.27 2.27 0 0 0-.04-.07l-.06-.1-.06-.1-.08-.12a5.3 5.3 0 0 0-.05-.08l-.06-.08-.06-.08a.98.98 0 0 0-.05-.08l-.06-.08-.06-.08-.11-.15-.05-.06-.07-.09-.06-.06-.07-.09-.05-.06-.08-.08-.04-.05-.3-.31-.04-.04-.09-.1-.04-.04a6.7 6.7 0 0 0-.1-.08l-.03-.03-.34-.3-.04-.03a7.13 7.13 0 0 0-.1-.09l-.04-.03-.11-.09-.02-.01-.4-.29-.02-.01a9.08 9.08 0 0 0-.12-.09l-.03-.02-.13-.08h-.01l-.44-.27h-.01l-.14-.08-.02-.01a9.62 9.62 0 0 0-.79-.38h-.01a9.16 9.16 0 0 0-.22-.1h1.41c.23 0 .42-.24.42-.55 0-.31-.19-.56-.42-.56h-.42l.09-.22c.4-.23 1.1-.73 1.8-1.65v-.01l.15-.22.01-.01.15-.22.02-.03.07-.1v-.01l.07-.12.02-.03.06-.1.01-.02.07-.12.02-.03a6.4 6.4 0 0 0 .14-.27l.01-.03.05-.1.02-.04.07-.14.01-.02.05-.12.02-.04a6.48 6.48 0 0 0 .12-.3l.02-.04.05-.13.01-.03.06-.15.02-.05.04-.12.01-.05a12.61 12.61 0 0 0 .07-.2l.04-.13.02-.05.04-.17.02-.05.03-.13.02-.06.04-.18.02-.05.03-.14.01-.06.04-.18v-.04l.04-.16.01-.07.03-.17.01-.03.03-.2.01-.07.03-.16v-.06l.03-.2v-.07a8.25 8.25 0 0 0 .06-.45v-.06l.02-.18v-.07l.02-.23v-.25l.01-.06.01-.25v-1.47l-.01-.07-.01-.23v-.06l-.03-.28v-.07l-.02-.24v-.07l-.03-.3v-.05c-.02-.08-.02-.17-.03-.25a5.2 5.2 0 0 0-.05-.39v-.04l-.04-.27-.01-.09-.05-.32c-1.57-10.66-12.76-8.93-12.76-8.93l.35 2.3-6.76 6.77.3 2.62 2.56 1.5c.11-.28.26-.54.43-.79 1.66-1.8 4.87-3.23 5.79-3.52l.28-.09a17.62 17.62 0 0 0-3.7 13.04c-.2.04-.36.27-.36.56 0 .3.2.56.42.56h1.41a9.4 9.4 0 0 0-5.5 5.77l-.01.07-.04.12-.02.08a4.15 4.15 0 0 0-.06.2l-.03.1-.02.12-.03.13h-.56a.85.85 0 0 0-.6.22.77.77 0 0 0-.24.55.74.74 0 0 0 .25.55.82.82 0 0 0 .59.22h19.96a.85.85 0 0 0 .59-.22.77.77 0 0 0 .24-.55.74.74 0 0 0-.24-.55.82.82 0 0 0-.59-.22Zm23.4 0h-.57v-.01l-.02-.07a5.09 5.09 0 0 0-.03-.14l-.02-.06a9.52 9.52 0 0 0-.04-.18v-.01a8.11 8.11 0 0 0-.06-.2l-.02-.05-.04-.13-.02-.07a6.5 6.5 0 0 0-.05-.13l-.02-.06-.06-.16v-.03a7.57 7.57 0 0 0-.08-.18l-.03-.06-.05-.12-.03-.07a7.38 7.38 0 0 0-.08-.18l-.06-.13-.03-.05a6.16 6.16 0 0 0-.08-.17l-.04-.07-.06-.1-.04-.07-.06-.1a2.27 2.27 0 0 0-.04-.07l-.06-.1-.06-.1-.08-.12a5.3 5.3 0 0 0-.06-.08l-.05-.08-.06-.08a.98.98 0 0 0-.05-.08l-.06-.08-.06-.08-.11-.15-.06-.06-.07-.09-.05-.06-.07-.09-.05-.06-.08-.08-.05-.05-.29-.31-.04-.04-.09-.1-.04-.04a6.7 6.7 0 0 0-.1-.08l-.03-.03-.35-.3-.03-.03a7.13 7.13 0 0 0-.1-.09l-.04-.03-.12-.09-.02-.01-.4-.29v-.01a9.71 9.71 0 0 0-.14-.09l-.02-.02-.14-.08-.45-.27-.15-.08-.02-.01a9.62 9.62 0 0 0-.78-.38h-.02a9.16 9.16 0 0 0-.21-.1h1.41c.23 0 .42-.24.42-.55 0-.31-.19-.56-.42-.56h-.42l.09-.22c.4-.23 1.1-.73 1.8-1.65v-.01l.15-.22.01-.01.15-.22.02-.03.07-.1v-.01l.07-.12.02-.03.06-.1.01-.02.07-.12.02-.03a6.4 6.4 0 0 0 .13-.27l.02-.03.05-.1.02-.04.06-.14.02-.02.05-.12.02-.04a6.48 6.48 0 0 0 .12-.3l.02-.04.05-.13.01-.03.05-.15.02-.05.05-.12.01-.05a12.61 12.61 0 0 0 .07-.2l.04-.13.01-.05.05-.17.02-.05c0-.05.02-.09.03-.13l.02-.06.04-.18.01-.05.04-.14.01-.06a12.91 12.91 0 0 0 .08-.38l.01-.07.03-.17v-.03l.04-.2.01-.07.02-.16.01-.06.03-.2v-.07a8.25 8.25 0 0 0 .05-.45v-.06l.02-.18v-.07l.02-.23v-.05l.02-.2v-.34l.01-.22v-.95l-.01-.27v-.07l-.02-.23v-.06l-.02-.28v-.07l-.02-.24v-.07l-.03-.3v-.05l-.04-.25a5.2 5.2 0 0 0-.04-.39v-.04l-.04-.27-.01-.09-.05-.32c-1.58-10.66-12.77-8.93-12.77-8.93l.36 2.3-6.77 6.77.3 2.62 2.56 1.5c.12-.28.27-.54.44-.79 1.66-1.8 4.86-3.23 5.78-3.52l.3-.09a17.62 17.62 0 0 0-3.7 13.04c-.21.04-.37.27-.37.56 0 .3.19.56.42.56h1.41a9.4 9.4 0 0 0-5.5 5.77l-.02.07-.03.12-.02.08a3.83 3.83 0 0 0-.06.2l-.03.1-.02.12-.03.13h-.57a.85.85 0 0 0-.58.22.77.77 0 0 0-.25.55.74.74 0 0 0 .25.55.82.82 0 0 0 .58.22h19.97a.85.85 0 0 0 .59-.22.77.77 0 0 0 .24-.55.74.74 0 0 0-.24-.55.82.82 0 0 0-.6-.22Zm23.38 0h-.56v-.01l-.02-.07a4.72 4.72 0 0 0-.04-.14l-.01-.06a9.52 9.52 0 0 0-.05-.18v-.01a8.11 8.11 0 0 0-.06-.2l-.01-.05-.04-.13-.03-.07a6.5 6.5 0 0 0-.04-.13l-.02-.06-.06-.16-.01-.03a7.57 7.57 0 0 0-.1-.24l-.05-.12-.03-.07a7.38 7.38 0 0 0-.09-.18c-.02-.05-.03-.09-.06-.13l-.02-.05a6.16 6.16 0 0 0-.09-.17l-.04-.07-.05-.1-.05-.07a9.18 9.18 0 0 0-.1-.17c-.02-.04-.03-.07-.06-.1l-.05-.1-.09-.12a5.3 5.3 0 0 0-.05-.08l-.05-.08-.06-.08a.98.98 0 0 0-.06-.08l-.06-.08-.05-.08-.12-.15-.05-.06-.07-.09-.05-.06-.07-.09-.06-.06-.07-.08-.05-.05-.29-.31-.04-.04-.1-.1-.04-.04a6.7 6.7 0 0 0-.1-.08l-.02-.03-.35-.3-.03-.03a7.13 7.13 0 0 0-.1-.09l-.05-.03-.1-.09-.03-.01-.4-.29-.01-.01a9.08 9.08 0 0 0-.13-.09l-.03-.02-.13-.08-.45-.27-.15-.08-.02-.01a9.62 9.62 0 0 0-.78-.38h-.02a9.16 9.16 0 0 0-.21-.1h1.41c.23 0 .42-.24.42-.55 0-.31-.19-.56-.42-.56h-.42l.08-.22c.4-.23 1.1-.73 1.8-1.65v-.01l.16-.22v-.01l.16-.22.01-.03.07-.1v-.01l.08-.12.01-.03.07-.1v-.02l.08-.12.01-.03a6.4 6.4 0 0 0 .14-.27l.02-.03.05-.1.02-.04.06-.14.01-.02.06-.12.02-.04a6.48 6.48 0 0 0 .12-.3l.02-.04.05-.13v-.03l.06-.15.02-.05.04-.12.02-.05a11.15 11.15 0 0 0 .07-.2l.04-.13.01-.05.05-.17.01-.05.04-.13a15.88 15.88 0 0 0 .06-.23l.01-.06.03-.14.02-.06a12.91 12.91 0 0 0 .08-.38v-.07l.04-.17v-.03l.04-.2v-.07c.02-.05.02-.1.03-.16v-.06l.04-.2v-.07a8.25 8.25 0 0 0 .05-.45v-.06l.02-.18v-.07l.02-.23v-.05l.01-.2v-.06l.02-.25v-1.2l-.01-.27v-.07l-.02-.23v-.06l-.02-.28v-.07l-.02-.24-.01-.07-.03-.3v-.05l-.03-.25a5.2 5.2 0 0 0-.04-.39v-.04l-.04-.27-.02-.09-.04-.32c-1.58-10.66-12.77-8.93-12.77-8.93l.36 2.3-6.77 6.77.3 2.62 2.56 1.5c.12-.28.26-.54.44-.79 1.65-1.8 4.86-3.23 5.78-3.52l.29-.09a17.62 17.62 0 0 0-3.7 13.04c-.2.04-.36.27-.36.56 0 .3.19.56.42.56h1.4a9.4 9.4 0 0 0-5.49 5.77l-.02.07-.04.12-.02.08a4.15 4.15 0 0 0-.05.2l-.03.1-.03.12-.03.13h-.56a.85.85 0 0 0-.59.22.77.77 0 0 0-.24.55.74.74 0 0 0 .24.55.82.82 0 0 0 .6.22h19.96a.85.85 0 0 0 .58-.22.77.77 0 0 0 .25-.55.74.74 0 0 0-.25-.55.82.82 0 0 0-.58-.22h-.01Zm8.35-16.94v-11.66h3v4.62h.83l3.57-4.62h3.26l-4.5 5.45 4.67 6.21h-3.5l-3.5-4.95h-.83v4.95h-3Zm12.5.22a6.22 6.22 0 0 1-.76-.05v-2.63l.25.01c.23 0 .41-.03.57-.08a.9.9 0 0 0 .42-.4c.1-.21.2-.52.28-.92.09-.4.15-.93.18-1.6.04-.67.05-1.52.05-2.54v-3.67h8.83v11.66h-3.02v-9.2h-3.01v1.54c0 1.39-.06 2.55-.17 3.5a9.62 9.62 0 0 1-.5 2.26 3.6 3.6 0 0 1-.78 1.33c-.31.3-.67.5-1.06.62-.4.11-.82.17-1.29.17Zm14.49 0a4.04 4.04 0 0 1-.67-.07v-2.48l.27.03.31.02c.33 0 .58-.02.75-.07a.85.85 0 0 0 .42-.26c.1-.14.18-.32.25-.54l-4.68-8.5h3.05l3.1 5.9 2.43-5.9h2.93l-3.9 8.8a10 10 0 0 1-.77 1.45 2.94 2.94 0 0 1-1.96 1.45 6.1 6.1 0 0 1-1.53.17Zm9.49-.22v-11.66h8.57v2.47h-5.57v1.73h1.91c1.62 0 2.81.33 3.58 1a3.28 3.28 0 0 1 1.17 2.65c0 1.2-.4 2.13-1.17 2.81-.77.67-1.96 1-3.58 1h-4.91Zm3-2.46h1.58c.72 0 1.23-.12 1.53-.35.3-.25.45-.58.45-1 0-.42-.15-.75-.45-.99-.3-.24-.81-.36-1.53-.36h-1.58v2.7Zm-33.41 20.46v-4.65a4.9 4.9 0 0 1-2.82.74c-1.2 0-2.12-.3-2.75-.9-.6-.61-.91-1.59-.91-2.93v-3.92h3v3.42c0 .65.13 1.12.41 1.41.28.28.67.42 1.17.42.45 0 .84-.05 1.15-.15.3-.11.56-.23.75-.35v-4.75h3.01v11.66h-3.01Zm5.33 0v-11.66h8.5v2.3h-5.5v2.28h5v2.17h-5v2.61h5.5v2.3h-8.5Zm13.48 0v-9.2h-3.58v-2.46h10.16v2.47h-3.58v9.19h-3Zm8.09 0v-11.66h3v3.87h1.4c1.63 0 2.82.35 3.59 1.05.78.7 1.16 1.64 1.16 2.84s-.38 2.15-1.16 2.85c-.77.7-1.96 1.05-3.58 1.05h-4.41Zm3-2.46h1.07c.7 0 1.21-.14 1.52-.4.31-.27.47-.61.47-1.04 0-.42-.16-.76-.47-1.03-.31-.27-.81-.4-1.51-.4h-1.09v2.87Zm6.99 2.46v-11.66h3v11.66h-3Zm5.32 0v-11.66h4.75c1.09 0 1.98.17 2.68.49.7.3 1.22.76 1.55 1.36.34.6.51 1.3.51 2.13 0 .83-.17 1.54-.51 2.14-.33.6-.85 1.06-1.55 1.38-.7.3-1.6.46-2.68.46h-1.75v3.7h-3Zm3-6.16h1.42c.76 0 1.3-.13 1.61-.38.31-.26.47-.64.47-1.14 0-.5-.16-.87-.47-1.13-.31-.25-.85-.38-1.61-.38h-1.42v3.03Zm8.16 6.16v-11.66h8.5v2.3h-5.5v2.28h5v2.17h-5v2.61h5.5v2.3h-8.5Zm9.65 0 3.8-6.08-3.63-5.58h3.31l2.28 3.53 2.32-3.53h3.25l-3.62 5.55 3.78 6.11h-3.34l-2.44-4.08-2.43 4.08h-3.28Zm17.23 0v-11.66h3v4.62h.83l3.56-4.62h3.27l-4.5 5.45 4.66 6.21h-3.5l-3.49-4.95h-.83v4.95h-3Zm17.33.22a6.8 6.8 0 0 1-2.17-.34 4.87 4.87 0 0 1-1.81-1.05 4.92 4.92 0 0 1-1.23-1.84 7.48 7.48 0 0 1-.45-2.73v-.34c0-1.02.15-1.9.45-2.63a4.81 4.81 0 0 1 3.04-2.83 7.01 7.01 0 0 1 4.35 0 4.81 4.81 0 0 1 3.03 2.83c.3.73.45 1.61.45 2.63v.34a7.5 7.5 0 0 1-.45 2.73c-.3.75-.71 1.37-1.23 1.84a4.9 4.9 0 0 1-1.8 1.05c-.68.23-1.4.34-2.18.34Zm-.02-2.5c.46 0 .88-.1 1.27-.3.39-.21.7-.56.93-1.05.24-.5.37-1.2.37-2.11v-.34a4.5 4.5 0 0 0-.37-2.01 2.06 2.06 0 0 0-.93-1 2.86 2.86 0 0 0-2.5 0c-.39.19-.7.52-.95 1a4.5 4.5 0 0 0-.37 2.01v.34c0 .9.13 1.61.37 2.11.25.49.56.84.95 1.05.39.2.8.3 1.23.3Zm7.59 2.28v-11.66h3v4.43h4.32v-4.43h3v11.66h-3v-4.76h-4.33v4.76h-3Zm12.65 0v-11.66h8.5v2.3h-5.5v2.28h5v2.17h-5v2.61h5.5v2.3h-8.5Zm10.4 0v-11.66h3v7l4.58-7h2.75v11.66h-3v-7l-4.58 7h-2.74Zm5.17-12.3a5 5 0 0 1-1.92-.32 2.25 2.25 0 0 1-1.08-.97 3.37 3.37 0 0 1-.33-1.58h2.43c0 .47.06.78.2.95.14.16.38.23.7.23.32 0 .55-.07.68-.23.14-.17.22-.48.22-.95h2.43c0 .63-.12 1.16-.35 1.58-.22.42-.58.75-1.07.97-.49.2-1.12.31-1.91.31Z" fill="#595653"/></svg>