<svg viewBox="0 0 213 32" fill="none" xmlns="http://www.w3.org/2000/svg"><path d="M18.02 27.66h-.48v-.02l-.02-.06a3.96 3.96 0 0 0-.08-.32v-.01a7.04 7.04 0 0 0-.05-.17l-.02-.05c0-.04-.02-.08-.03-.11l-.02-.06a6.48 6.48 0 0 0-.04-.11l-.02-.06a5.87 5.87 0 0 0-.05-.13v-.03a6.75 6.75 0 0 0-.1-.21.21.21 0 0 0-.04-.1l-.02-.06a5.21 5.21 0 0 0-.08-.16l-.05-.11-.02-.05-.08-.14-.03-.06-.05-.09-.04-.06a11.46 11.46 0 0 0-.08-.15l-.06-.09-.05-.08-.07-.1a6.11 6.11 0 0 0-.04-.07l-.05-.07-.05-.07a.83.83 0 0 0-.05-.07l-.05-.07-.05-.07-.1-.12-.04-.06-.06-.08-.05-.05-.06-.08-.05-.05-.06-.07-.04-.05a8.13 8.13 0 0 0-.25-.26l-.04-.04-.08-.08-.04-.03a6.65 6.65 0 0 0-.08-.08l-.03-.03-.3-.26-.02-.02a6.31 6.31 0 0 0-.1-.08l-.03-.02-.1-.08-.01-.01a8.89 8.89 0 0 0-.35-.25l-.01-.01a7.82 7.82 0 0 0-.11-.07l-.03-.02a7.58 7.58 0 0 0-.1-.07h-.02a10.84 10.84 0 0 0-.51-.3l-.02-.02a8.3 8.3 0 0 0-.68-.32h-.01a8.4 8.4 0 0 0-.19-.08h1.23c.2 0 .36-.22.36-.49s-.16-.49-.36-.49h-.37l.08-.18c.34-.2.95-.64 1.55-1.43v-.01l.14-.19.14-.2.01-.02.06-.1.07-.1.01-.03.05-.09.01-.02.06-.1.02-.03a5.9 5.9 0 0 0 .12-.22l.01-.03.05-.1.01-.03a7 7 0 0 0 .06-.11v-.03l.05-.1.02-.03a6.7 6.7 0 0 0 .1-.25l.02-.05.04-.1.02-.03.04-.13.02-.05.04-.1v-.04a11.46 11.46 0 0 0 .07-.18l.03-.11.02-.05a7.18 7.18 0 0 0 .05-.19l.03-.11.01-.05.04-.15.01-.04.03-.13.01-.05.04-.16v-.03l.03-.14.01-.06.03-.15v-.03a16.35 16.35 0 0 0 .06-.37v-.04c.02-.06.02-.12.03-.19v-.05l.02-.15v-.05c.02-.06.02-.13.03-.2v-.04l.02-.16v-.06l.01-.2v-.04a12.94 12.94 0 0 0 .02-.23v-1.55l-.02-.2v-.05l-.02-.24v-.06l-.02-.2v-.07l-.02-.25v-.05a29.2 29.2 0 0 0-.07-.56v-.03l-.04-.24v-.07l-.05-.28c-1.36-9.23-11.05-7.73-11.05-7.73l.3 1.98-5.85 5.87.26 2.27 2.22 1.3c.1-.25.22-.47.37-.68 1.44-1.57 4.21-2.8 5.01-3.05l.25-.08a15.25 15.25 0 0 0-3.2 11.29c-.18.03-.31.23-.31.48 0 .27.16.49.36.49h1.22a8.14 8.14 0 0 0-4.71 4.84l-.02.05a2.3 2.3 0 0 0-.03.1l-.02.06a5.4 5.4 0 0 0-.03.1l-.02.07a3.64 3.64 0 0 0-.05.18l-.02.1-.02.1-.03.1h-.49a.74.74 0 0 0-.5.2.67.67 0 0 0-.22.47.64.64 0 0 0 .22.48.71.71 0 0 0 .5.19h17.29a.74.74 0 0 0 .5-.19.67.67 0 0 0 .22-.48.64.64 0 0 0-.21-.48.71.71 0 0 0-.51-.19Zm20.25 0h-.48v-.02l-.02-.06c0-.04-.02-.07-.03-.11l-.01-.06-.04-.15v-.01a6.19 6.19 0 0 0-.05-.17l-.02-.05c0-.04-.02-.08-.03-.11l-.02-.06a5.04 5.04 0 0 0-.04-.11l-.02-.06a6.39 6.39 0 0 0-.05-.13v-.03l-.07-.15-.02-.06-.05-.1-.02-.06a6.95 6.95 0 0 0-.08-.16l-.05-.11-.02-.05-.08-.14-.03-.06-.05-.09-.04-.06-.04-.08a1.79 1.79 0 0 0-.04-.07l-.06-.09-.05-.08-.07-.1a6.1 6.1 0 0 0-.04-.07l-.05-.07-.05-.07a.83.83 0 0 0-.05-.07l-.05-.07-.05-.07-.1-.12-.04-.06-.06-.08-.05-.05-.06-.08-.05-.05-.06-.07-.04-.05a8.03 8.03 0 0 0-.25-.26l-.04-.04-.08-.08-.04-.03a6.66 6.66 0 0 0-.08-.08l-.03-.03-.3-.26-.02-.02a6.87 6.87 0 0 0-.1-.08l-.03-.02-.1-.08-.01-.01a8.74 8.74 0 0 0-.35-.25l-.01-.01a7.83 7.83 0 0 0-.11-.07l-.03-.02-.11-.07a10.83 10.83 0 0 0-.51-.3l-.03-.02a8.29 8.29 0 0 0-.68-.32h-.01a8.4 8.4 0 0 0-.19-.08h1.23c.2 0 .36-.22.36-.49s-.16-.49-.36-.49h-.37l.08-.18c.34-.2.95-.64 1.55-1.43v-.01l.14-.19.14-.2.01-.02.06-.1.07-.1.01-.03a5.48 5.48 0 0 0 .12-.21l.02-.03a5.9 5.9 0 0 0 .12-.22l.01-.03.05-.1.01-.03.06-.11v-.03l.05-.1.02-.03a6.03 6.03 0 0 0 .1-.25l.02-.05.04-.1.01-.03.05-.13.02-.05a6.69 6.69 0 0 0 .1-.32l.04-.11.02-.05a6.57 6.57 0 0 0 .05-.19l.03-.11a3.27 3.27 0 0 1 .05-.2l.01-.04.03-.13.01-.05a9.91 9.91 0 0 0 .07-.33l.01-.06.03-.15v-.03l.03-.17.01-.06.02-.14v-.04l.03-.19v-.05a6.91 6.91 0 0 0 .05-.4v-.04l.01-.16v-.06l.02-.2v-.04l.01-.17v-.06l.01-.21v-1.34l-.02-.2v-.05l-.02-.24v-.06l-.02-.2v-.07l-.02-.25v-.05c-.02-.07-.02-.15-.03-.22a3.78 3.78 0 0 0-.04-.34v-.03l-.04-.24v-.07l-.05-.28c-1.36-9.23-11.05-7.73-11.05-7.73l.3 1.98-5.85 5.87.26 2.27 2.22 1.3c.1-.25.22-.47.37-.68 1.44-1.57 4.21-2.8 5.01-3.05l.25-.08a15.25 15.25 0 0 0-3.2 11.29c-.18.03-.32.23-.32.48 0 .27.17.49.37.49h1.22a8.14 8.14 0 0 0-4.76 5l-.02.05-.03.1-.02.07c0 .04-.02.07-.03.1l-.02.08-.02.1-.02.1-.03.1h-.49a.74.74 0 0 0-.5.2.67.67 0 0 0-.22.47.64.64 0 0 0 .21.48.71.71 0 0 0 .51.19h17.29a.74.74 0 0 0 .5-.19.67.67 0 0 0 .22-.48.64.64 0 0 0-.21-.48.7.7 0 0 0-.51-.19Zm20.25 0h-.48v-.02l-.02-.06a4.31 4.31 0 0 0-.08-.32v-.01a6.59 6.59 0 0 0-.05-.17l-.02-.05c0-.04-.02-.08-.03-.11l-.02-.06a5.04 5.04 0 0 0-.04-.11l-.02-.06a7.01 7.01 0 0 0-.05-.13v-.03l-.07-.15-.02-.06-.05-.1-.02-.06a6.95 6.95 0 0 0-.08-.16l-.05-.11-.02-.05-.08-.14-.03-.06-.05-.09-.04-.06a8.6 8.6 0 0 0-.08-.15l-.06-.09-.04-.08-.08-.1a4.97 4.97 0 0 0-.04-.07l-.05-.07-.05-.07a.88.88 0 0 0-.05-.07l-.05-.07-.05-.07-.1-.12-.04-.06-.06-.08-.05-.05-.06-.08-.05-.05-.06-.07-.04-.05a8.13 8.13 0 0 0-.25-.26l-.04-.04-.08-.08-.04-.03a6.66 6.66 0 0 0-.08-.08l-.03-.03-.3-.26-.02-.02a6.87 6.87 0 0 0-.1-.08l-.03-.02-.1-.08-.01-.01a8.74 8.74 0 0 0-.35-.25l-.01-.01a7.83 7.83 0 0 0-.11-.07l-.03-.02-.1-.07h-.02a10.83 10.83 0 0 0-.51-.3l-.02-.02a8.29 8.29 0 0 0-.68-.32h-.01a8.22 8.22 0 0 0-.18-.08h1.22c.2 0 .36-.22.36-.49s-.16-.49-.36-.49h-.37l.08-.18c.34-.2.95-.64 1.55-1.43v-.01l.14-.19.14-.2.01-.02.06-.1.07-.1.01-.03a4.86 4.86 0 0 0 .12-.21l.02-.03a5.13 5.13 0 0 0 .12-.22l.01-.03.05-.1.01-.03.06-.11.01-.03.04-.1.02-.03a6.03 6.03 0 0 0 .1-.25l.02-.05.05-.1v-.03l.05-.13.02-.05a6.69 6.69 0 0 0 .1-.32l.04-.11.02-.05a7.18 7.18 0 0 0 .13-.5l.01-.04.03-.13.01-.05.04-.16v-.03l.03-.14.01-.06.03-.15v-.03l.03-.17.01-.06.02-.14v-.04c.02-.06.02-.12.03-.19v-.05a6.91 6.91 0 0 0 .05-.4v-.04l.02-.16v-.06l.01-.2v-.04l.01-.17v-.06l.01-.21v-1.34l-.02-.2v-.05l-.02-.24v-.06l-.02-.2v-.07l-.02-.25v-.05c-.02-.07-.02-.15-.03-.22a3.02 3.02 0 0 0-.04-.34v-.03l-.04-.24v-.07l-.05-.28c-1.36-9.23-11.05-7.73-11.05-7.73l.31 1.98-5.86 5.87.26 2.27 2.22 1.3c.1-.25.22-.47.37-.68 1.44-1.57 4.22-2.8 5.01-3.05l.25-.08a15.25 15.25 0 0 0-3.2 11.29c-.18.03-.31.23-.31.48 0 .27.16.49.36.49h1.22a8.14 8.14 0 0 0-4.76 5l-.02.05-.03.1-.02.07a3.57 3.57 0 0 0-.05.18l-.02.1-.02.1-.03.1h-.49a.74.74 0 0 0-.5.2.67.67 0 0 0-.22.47.64.64 0 0 0 .22.48.71.71 0 0 0 .5.19h17.29a.74.74 0 0 0 .5-.19.67.67 0 0 0 .22-.48.64.64 0 0 0-.21-.48.71.71 0 0 0-.51-.19Zm20.25 0h-.48v-.02l-.02-.06a3.96 3.96 0 0 0-.08-.32v-.01a7.04 7.04 0 0 0-.05-.17l-.02-.05c0-.04-.02-.08-.03-.11l-.02-.06a6.48 6.48 0 0 0-.04-.11l-.02-.06a5.87 5.87 0 0 0-.05-.13v-.03a6.75 6.75 0 0 0-.1-.21.21.21 0 0 0-.04-.1l-.02-.06a5.21 5.21 0 0 0-.08-.16l-.05-.11-.02-.05-.08-.14-.03-.06-.05-.09-.04-.06a11.46 11.46 0 0 0-.08-.15l-.06-.09-.05-.08-.07-.1a6.11 6.11 0 0 0-.04-.07l-.05-.07-.05-.07a.83.83 0 0 0-.05-.07l-.05-.07-.05-.07-.1-.12-.04-.06-.06-.08-.05-.05-.06-.08-.05-.05-.06-.07-.04-.05a8.13 8.13 0 0 0-.25-.26l-.04-.04-.08-.08-.04-.03a6.65 6.65 0 0 0-.08-.08l-.03-.03-.3-.26-.02-.02a6.31 6.31 0 0 0-.1-.08l-.03-.02-.1-.08-.01-.01a8.89 8.89 0 0 0-.35-.25l-.01-.01a7.82 7.82 0 0 0-.11-.07l-.03-.02a7.58 7.58 0 0 0-.1-.07h-.02a10.84 10.84 0 0 0-.51-.3l-.02-.02a8.3 8.3 0 0 0-.68-.32h-.01a8.4 8.4 0 0 0-.19-.08h1.23c.2 0 .36-.22.36-.49s-.16-.49-.36-.49h-.37l.08-.18c.34-.2.95-.64 1.55-1.43v-.01l.14-.19.14-.2.01-.02.06-.1.07-.1.01-.03.05-.09.01-.02.06-.1.02-.03a5.9 5.9 0 0 0 .12-.22l.01-.03.05-.1.01-.03a7 7 0 0 0 .06-.11v-.03l.05-.1.02-.03a6.7 6.7 0 0 0 .1-.25l.02-.05.04-.1.02-.03.04-.13.02-.05.04-.1v-.04a11.46 11.46 0 0 0 .07-.18l.03-.11.02-.05a7.18 7.18 0 0 0 .05-.19l.03-.11.01-.05.04-.15.01-.04.03-.13.01-.05.04-.16v-.03l.03-.14.01-.06.03-.15v-.03a16.35 16.35 0 0 0 .06-.37v-.04c.02-.06.02-.12.03-.19v-.05l.02-.15v-.05c.02-.06.02-.13.03-.2v-.04l.02-.16v-.06a17.75 17.75 0 0 0 .02-.41v-.06l.01-.21v-1.34l-.02-.2v-.05l-.02-.24v-.06l-.02-.2v-.07l-.02-.25v-.05a29.2 29.2 0 0 0-.07-.56v-.03l-.04-.24v-.07l-.05-.28c-1.36-9.23-11.05-7.73-11.05-7.73l.3 1.98-5.85 5.87.26 2.27 2.22 1.3c.1-.25.22-.47.37-.68 1.44-1.57 4.21-2.8 5.01-3.05l.25-.08a15.25 15.25 0 0 0-3.2 11.29c-.18.03-.31.23-.31.48 0 .27.16.49.36.49h1.22a8.14 8.14 0 0 0-4.67 4.72 7.2 7.2 0 0 0-.1.28v.05l-.04.1-.02.07a3.26 3.26 0 0 0-.05.18l-.02.1-.02.1-.03.1h-.49a.74.74 0 0 0-.5.2.67.67 0 0 0-.22.47.64.64 0 0 0 .22.48.71.71 0 0 0 .5.19h17.29a.74.74 0 0 0 .5-.19.67.67 0 0 0 .22-.48.64.64 0 0 0-.21-.48.71.71 0 0 0-.51-.19Zm7.23-14.66v-10.1h2.6v4h.73l3.08-4h2.83l-3.9 4.72 4.04 5.38h-3.03l-3.02-4.28h-.73v4.28h-2.6Zm10.82.19a5.38 5.38 0 0 1-.65-.05v-2.27l.22.01c.2 0 .36-.02.49-.07a.73.73 0 0 0 .36-.35 3 3 0 0 0 .25-.79c.07-.35.13-.8.15-1.38.03-.6.05-1.33.05-2.21v-3.17h7.64v10.09h-2.61v-7.97h-2.61v1.34c0 1.2-.05 2.2-.14 3.03-.1.8-.24 1.46-.44 1.96-.18.5-.4.88-.67 1.15-.27.26-.58.44-.93.53-.33.1-.7.15-1.1.15Zm12.55 0a3.52 3.52 0 0 1-.57-.06v-2.15l.23.03.27.01c.28 0 .5-.01.65-.05a.74.74 0 0 0 .36-.23c.09-.12.16-.27.22-.46l-4.06-7.37h2.64l2.69 5.12 2.1-5.12h2.54l-3.38 7.62c-.22.5-.44.92-.66 1.26a2.54 2.54 0 0 1-1.7 1.25c-.37.1-.8.15-1.33.15Zm8.22-.19v-10.1h7.42v2.14h-4.83v1.5h1.66c1.4 0 2.44.29 3.1.87a2.81 2.81 0 0 1 1.01 2.29c0 1.04-.33 1.85-1 2.43-.67.58-1.7.87-3.1.87h-4.26Zm2.6-2.13h1.37c.62 0 1.06-.1 1.32-.3.26-.22.39-.5.39-.87s-.13-.65-.39-.85c-.26-.21-.7-.32-1.32-.32h-1.38v2.34Zm-28.93 18.13v-4.02a4.23 4.23 0 0 1-2.44.63c-1.05 0-1.84-.26-2.38-.78-.53-.53-.8-1.37-.8-2.53v-3.4h2.6v2.96c0 .57.12.98.36 1.23.24.24.58.36 1.01.36.4 0 .73-.04 1-.13.27-.1.48-.2.65-.3v-4.11h2.6v10.09h-2.6Zm4.62 0v-10.1h7.35v2h-4.76v1.97h4.33v1.88h-4.33v2.26h4.76v1.99h-7.35Zm11.67 0v-7.96h-3.1v-2.13h8.8v2.13h-3.1v7.96h-2.6Zm7 0v-10.1h2.6v3.35h1.22c1.4 0 2.44.3 3.1.91.67.6 1 1.43 1 2.47 0 1.03-.33 1.86-1 2.46-.66.6-1.7.91-3.1.91h-3.82Zm2.6-2.13h.93c.6 0 1.04-.12 1.31-.35.27-.23.4-.53.4-.9 0-.36-.13-.66-.4-.89-.27-.23-.7-.34-1.3-.34h-.95v2.48Zm6.05 2.13v-10.1h2.6v10.1h-2.6Zm4.61 0v-10.1h4.11c.94 0 1.72.15 2.32.43.6.26 1.05.66 1.34 1.18.3.5.45 1.12.45 1.84 0 .71-.15 1.33-.45 1.85-.29.52-.73.92-1.34 1.2-.6.26-1.38.4-2.32.4h-1.51v3.2h-2.6Zm2.6-5.33h1.22c.67 0 1.13-.12 1.4-.34.27-.22.4-.54.4-.98 0-.43-.13-.76-.4-.98-.27-.22-.73-.33-1.4-.33h-1.22v2.63Zm7.06 5.33v-10.1h7.35v2h-4.75v1.97h4.32v1.88h-4.32v2.26h4.75v1.99h-7.35Zm8.36 0 3.29-5.26-3.15-4.83h2.87l1.98 3.05 2-3.05h2.81l-3.13 4.8 3.28 5.29h-2.9l-2.1-3.53-2.11 3.53h-2.84Zm14.92 0v-10.1h2.6v4h.71l3.09-4h2.82l-3.89 4.72 4.04 5.38h-3.03l-3.03-4.28h-.72v4.28h-2.6Zm15 .19c-.65 0-1.28-.1-1.87-.3a4.15 4.15 0 0 1-1.58-.9c-.45-.41-.8-.95-1.06-1.6a6.5 6.5 0 0 1-.4-2.36v-.3c0-.88.14-1.64.4-2.27a4.17 4.17 0 0 1 2.64-2.45 6.06 6.06 0 0 1 3.76 0 4.16 4.16 0 0 1 2.62 2.45 6 6 0 0 1 .4 2.28v.29c0 .9-.14 1.7-.4 2.36a4.26 4.26 0 0 1-1.06 1.6c-.46.41-.97.72-1.56.9-.59.2-1.22.3-1.89.3Zm-.01-2.17c.39 0 .75-.08 1.1-.25a2 2 0 0 0 .8-.91c.21-.44.32-1.05.32-1.83v-.3c0-.74-.11-1.32-.32-1.74-.2-.41-.47-.7-.8-.86a2.47 2.47 0 0 0-2.17 0c-.34.16-.61.45-.82.86-.21.42-.32 1-.32 1.75v.29c0 .78.1 1.4.32 1.83a2 2 0 0 0 .82.9c.34.18.7.26 1.07.26Zm6.56 1.98v-10.1h2.6v3.84h3.75v-3.83h2.6v10.09h-2.6v-4.12h-3.75v4.12h-2.6Zm10.96 0v-10.1h7.35v2h-4.76v1.97h4.33v1.88h-4.33v2.26h4.76v1.99h-7.35Zm9 0v-10.1h2.6v6.06l3.97-6.05h2.38v10.09h-2.6v-6.06l-3.96 6.06h-2.38Zm4.48-10.65a4.3 4.3 0 0 1-1.66-.28c-.42-.2-.74-.47-.94-.83a2.98 2.98 0 0 1-.29-1.37h2.1c0 .4.07.67.18.82.13.13.33.2.6.2.29 0 .48-.07.6-.2.12-.15.19-.42.19-.82h2.1c0 .54-.1 1-.3 1.37-.2.36-.5.64-.92.83-.43.18-.98.28-1.66.28Z" fill="#595653"/></svg>